<mxfile host="app.diagrams.net" agent="Mozilla/5.0 (Windows NT 10.0; Win64; x64) AppleWebKit/537.36 (KHTML, like Gecko) Chrome/130.0.0.0 Safari/537.36" version="24.8.3">
  <diagram name="Page-1" id="_CdQzujHHog6pKKCYR0x">
    <mxGraphModel dx="1434" dy="772" grid="1" gridSize="10" guides="1" tooltips="1" connect="1" arrows="1" fold="1" page="1" pageScale="1" pageWidth="850" pageHeight="1100" math="0" shadow="0">
      <root>
        <mxCell id="0" />
        <mxCell id="1" parent="0" />
        <mxCell id="apT51MfKlSb2n3AAJcUz-1" value="&lt;b&gt;GAME&amp;nbsp;&lt;/b&gt;&lt;div&gt;&lt;b&gt;START&lt;/b&gt;&lt;/div&gt;" style="ellipse;whiteSpace=wrap;html=1;" vertex="1" parent="1">
          <mxGeometry x="30" y="130" width="100" height="70" as="geometry" />
        </mxCell>
        <mxCell id="apT51MfKlSb2n3AAJcUz-3" value="" style="endArrow=classic;html=1;rounded=0;exitX=0.45;exitY=1.013;exitDx=0;exitDy=0;exitPerimeter=0;" edge="1" parent="1" source="apT51MfKlSb2n3AAJcUz-1">
          <mxGeometry width="50" height="50" relative="1" as="geometry">
            <mxPoint x="400" y="420" as="sourcePoint" />
            <mxPoint x="130" y="260" as="targetPoint" />
            <Array as="points">
              <mxPoint x="75" y="260" />
            </Array>
          </mxGeometry>
        </mxCell>
        <mxCell id="apT51MfKlSb2n3AAJcUz-6" value="" style="edgeStyle=orthogonalEdgeStyle;rounded=0;orthogonalLoop=1;jettySize=auto;html=1;" edge="1" parent="1" source="apT51MfKlSb2n3AAJcUz-4" target="apT51MfKlSb2n3AAJcUz-5">
          <mxGeometry relative="1" as="geometry" />
        </mxCell>
        <mxCell id="apT51MfKlSb2n3AAJcUz-4" value="Start Screen" style="rounded=1;whiteSpace=wrap;html=1;" vertex="1" parent="1">
          <mxGeometry x="140" y="220" width="120" height="60" as="geometry" />
        </mxCell>
        <mxCell id="apT51MfKlSb2n3AAJcUz-5" value="Settings" style="whiteSpace=wrap;html=1;rounded=1;" vertex="1" parent="1">
          <mxGeometry x="300" y="220" width="120" height="60" as="geometry" />
        </mxCell>
        <mxCell id="apT51MfKlSb2n3AAJcUz-12" value="" style="edgeStyle=orthogonalEdgeStyle;rounded=0;orthogonalLoop=1;jettySize=auto;html=1;" edge="1" parent="1" source="apT51MfKlSb2n3AAJcUz-7" target="apT51MfKlSb2n3AAJcUz-11">
          <mxGeometry relative="1" as="geometry" />
        </mxCell>
        <mxCell id="apT51MfKlSb2n3AAJcUz-14" value="" style="edgeStyle=orthogonalEdgeStyle;rounded=0;orthogonalLoop=1;jettySize=auto;html=1;" edge="1" parent="1" source="apT51MfKlSb2n3AAJcUz-7" target="apT51MfKlSb2n3AAJcUz-13">
          <mxGeometry relative="1" as="geometry" />
        </mxCell>
        <mxCell id="apT51MfKlSb2n3AAJcUz-7" value="Character Selection" style="whiteSpace=wrap;html=1;rounded=1;" vertex="1" parent="1">
          <mxGeometry x="200" y="320" width="120" height="60" as="geometry" />
        </mxCell>
        <mxCell id="apT51MfKlSb2n3AAJcUz-10" value="" style="endArrow=classic;html=1;rounded=0;exitX=0.617;exitY=1.033;exitDx=0;exitDy=0;exitPerimeter=0;entryX=1;entryY=0.5;entryDx=0;entryDy=0;" edge="1" parent="1" source="apT51MfKlSb2n3AAJcUz-5" target="apT51MfKlSb2n3AAJcUz-7">
          <mxGeometry width="50" height="50" relative="1" as="geometry">
            <mxPoint x="400" y="420" as="sourcePoint" />
            <mxPoint x="470" y="350" as="targetPoint" />
            <Array as="points">
              <mxPoint x="374" y="350" />
            </Array>
          </mxGeometry>
        </mxCell>
        <mxCell id="apT51MfKlSb2n3AAJcUz-11" value="Level Selection" style="whiteSpace=wrap;html=1;rounded=1;" vertex="1" parent="1">
          <mxGeometry x="50" y="320" width="120" height="60" as="geometry" />
        </mxCell>
        <mxCell id="apT51MfKlSb2n3AAJcUz-29" value="" style="edgeStyle=orthogonalEdgeStyle;rounded=0;orthogonalLoop=1;jettySize=auto;html=1;" edge="1" parent="1" source="apT51MfKlSb2n3AAJcUz-13" target="apT51MfKlSb2n3AAJcUz-28">
          <mxGeometry relative="1" as="geometry">
            <mxPoint x="620" y="190" as="targetPoint" />
            <Array as="points">
              <mxPoint x="440" y="460" />
              <mxPoint x="440" y="190" />
            </Array>
          </mxGeometry>
        </mxCell>
        <mxCell id="apT51MfKlSb2n3AAJcUz-13" value="Tutorial" style="whiteSpace=wrap;html=1;rounded=1;" vertex="1" parent="1">
          <mxGeometry x="200" y="430" width="120" height="60" as="geometry" />
        </mxCell>
        <mxCell id="apT51MfKlSb2n3AAJcUz-19" value="&lt;b&gt;GAME&lt;/b&gt;&lt;div&gt;&lt;b&gt;FINISH&lt;/b&gt;&lt;/div&gt;" style="ellipse;whiteSpace=wrap;html=1;" vertex="1" parent="1">
          <mxGeometry x="610" y="470" width="90" height="60" as="geometry" />
        </mxCell>
        <mxCell id="apT51MfKlSb2n3AAJcUz-22" value="1" style="text;html=1;align=center;verticalAlign=middle;whiteSpace=wrap;rounded=0;" vertex="1" parent="1">
          <mxGeometry x="220" y="220" width="60" height="30" as="geometry" />
        </mxCell>
        <mxCell id="apT51MfKlSb2n3AAJcUz-23" value="2" style="text;html=1;align=center;verticalAlign=middle;whiteSpace=wrap;rounded=0;" vertex="1" parent="1">
          <mxGeometry x="380" y="220" width="60" height="30" as="geometry" />
        </mxCell>
        <mxCell id="apT51MfKlSb2n3AAJcUz-24" value="5" style="text;html=1;align=center;verticalAlign=middle;whiteSpace=wrap;rounded=0;" vertex="1" parent="1">
          <mxGeometry x="280" y="430" width="60" height="30" as="geometry" />
        </mxCell>
        <mxCell id="apT51MfKlSb2n3AAJcUz-25" value="3" style="text;html=1;align=center;verticalAlign=middle;whiteSpace=wrap;rounded=0;" vertex="1" parent="1">
          <mxGeometry x="280" y="320" width="60" height="30" as="geometry" />
        </mxCell>
        <mxCell id="apT51MfKlSb2n3AAJcUz-27" value="4" style="text;html=1;align=center;verticalAlign=middle;whiteSpace=wrap;rounded=0;" vertex="1" parent="1">
          <mxGeometry x="130" y="325" width="60" height="20" as="geometry" />
        </mxCell>
        <mxCell id="apT51MfKlSb2n3AAJcUz-50" value="" style="edgeStyle=orthogonalEdgeStyle;rounded=0;orthogonalLoop=1;jettySize=auto;html=1;exitX=1;exitY=0.5;exitDx=0;exitDy=0;" edge="1" parent="1" source="apT51MfKlSb2n3AAJcUz-28" target="apT51MfKlSb2n3AAJcUz-51">
          <mxGeometry relative="1" as="geometry">
            <mxPoint x="720" y="260" as="targetPoint" />
            <Array as="points">
              <mxPoint x="720" y="190" />
            </Array>
          </mxGeometry>
        </mxCell>
        <mxCell id="apT51MfKlSb2n3AAJcUz-28" value="" style="whiteSpace=wrap;html=1;rounded=1;" vertex="1" parent="1">
          <mxGeometry x="570" y="160" width="120" height="60" as="geometry" />
        </mxCell>
        <mxCell id="apT51MfKlSb2n3AAJcUz-34" value="Game Start" style="text;html=1;align=center;verticalAlign=middle;whiteSpace=wrap;rounded=0;" vertex="1" parent="1">
          <mxGeometry x="580" y="175" width="100" height="30" as="geometry" />
        </mxCell>
        <mxCell id="apT51MfKlSb2n3AAJcUz-43" value="6" style="text;html=1;align=center;verticalAlign=middle;whiteSpace=wrap;rounded=0;" vertex="1" parent="1">
          <mxGeometry x="650" y="160" width="60" height="20" as="geometry" />
        </mxCell>
        <mxCell id="apT51MfKlSb2n3AAJcUz-54" value="" style="edgeStyle=orthogonalEdgeStyle;rounded=0;orthogonalLoop=1;jettySize=auto;html=1;" edge="1" parent="1" source="apT51MfKlSb2n3AAJcUz-51" target="apT51MfKlSb2n3AAJcUz-53">
          <mxGeometry relative="1" as="geometry" />
        </mxCell>
        <mxCell id="apT51MfKlSb2n3AAJcUz-51" value="Power-Up" style="rounded=1;whiteSpace=wrap;html=1;" vertex="1" parent="1">
          <mxGeometry x="660" y="260" width="120" height="60" as="geometry" />
        </mxCell>
        <mxCell id="apT51MfKlSb2n3AAJcUz-52" value="7" style="text;html=1;align=center;verticalAlign=middle;whiteSpace=wrap;rounded=0;" vertex="1" parent="1">
          <mxGeometry x="740" y="260" width="50" height="20" as="geometry" />
        </mxCell>
        <mxCell id="apT51MfKlSb2n3AAJcUz-57" value="" style="edgeStyle=orthogonalEdgeStyle;rounded=0;orthogonalLoop=1;jettySize=auto;html=1;" edge="1" parent="1" source="apT51MfKlSb2n3AAJcUz-53" target="apT51MfKlSb2n3AAJcUz-56">
          <mxGeometry relative="1" as="geometry" />
        </mxCell>
        <mxCell id="apT51MfKlSb2n3AAJcUz-53" value="Boss Stage" style="whiteSpace=wrap;html=1;rounded=1;" vertex="1" parent="1">
          <mxGeometry x="500" y="260" width="120" height="60" as="geometry" />
        </mxCell>
        <mxCell id="apT51MfKlSb2n3AAJcUz-55" value="8" style="text;html=1;align=center;verticalAlign=middle;whiteSpace=wrap;rounded=0;" vertex="1" parent="1">
          <mxGeometry x="580" y="260" width="50" height="20" as="geometry" />
        </mxCell>
        <mxCell id="apT51MfKlSb2n3AAJcUz-60" value="" style="edgeStyle=orthogonalEdgeStyle;rounded=0;orthogonalLoop=1;jettySize=auto;html=1;" edge="1" parent="1" source="apT51MfKlSb2n3AAJcUz-56" target="apT51MfKlSb2n3AAJcUz-58">
          <mxGeometry relative="1" as="geometry" />
        </mxCell>
        <mxCell id="apT51MfKlSb2n3AAJcUz-56" value="Game Over" style="whiteSpace=wrap;html=1;rounded=1;" vertex="1" parent="1">
          <mxGeometry x="500" y="370" width="120" height="60" as="geometry" />
        </mxCell>
        <mxCell id="apT51MfKlSb2n3AAJcUz-58" value="Game Ending" style="whiteSpace=wrap;html=1;rounded=1;" vertex="1" parent="1">
          <mxGeometry x="660" y="370" width="120" height="60" as="geometry" />
        </mxCell>
        <mxCell id="apT51MfKlSb2n3AAJcUz-61" value="9" style="text;html=1;align=center;verticalAlign=middle;whiteSpace=wrap;rounded=0;" vertex="1" parent="1">
          <mxGeometry x="580" y="370" width="50" height="20" as="geometry" />
        </mxCell>
        <mxCell id="apT51MfKlSb2n3AAJcUz-62" value="10" style="text;html=1;align=center;verticalAlign=middle;whiteSpace=wrap;rounded=0;" vertex="1" parent="1">
          <mxGeometry x="740" y="370" width="50" height="20" as="geometry" />
        </mxCell>
        <mxCell id="apT51MfKlSb2n3AAJcUz-64" value="" style="endArrow=classic;html=1;rounded=0;exitX=1;exitY=0.5;exitDx=0;exitDy=0;" edge="1" parent="1" source="apT51MfKlSb2n3AAJcUz-58">
          <mxGeometry width="50" height="50" relative="1" as="geometry">
            <mxPoint x="810" y="390" as="sourcePoint" />
            <mxPoint x="702" y="500" as="targetPoint" />
            <Array as="points">
              <mxPoint x="810" y="400" />
              <mxPoint x="810" y="500" />
            </Array>
          </mxGeometry>
        </mxCell>
      </root>
    </mxGraphModel>
  </diagram>
</mxfile>
